<mxfile host="app.diagrams.net" agent="Mozilla/5.0 (Windows NT 10.0; Win64; x64) AppleWebKit/537.36 (KHTML, like Gecko) Chrome/135.0.0.0 Safari/537.36" version="26.2.14">
  <diagram id="prtHgNgQTEPvFCAcTncT" name="Page-1">
    <mxGraphModel dx="741" dy="1697" grid="1" gridSize="10" guides="1" tooltips="1" connect="1" arrows="1" fold="1" page="1" pageScale="1" pageWidth="827" pageHeight="1169" math="0" shadow="0">
      <root>
        <mxCell id="0" />
        <mxCell id="1" parent="0" />
        <mxCell id="pPMCe3-cTSx6Zwr6l8Ok-11" value="系统总体架构图" style="swimlane;childLayout=stackLayout;resizeParent=1;resizeParentMax=0;horizontal=1;startSize=20;horizontalStack=0;html=1;" vertex="1" parent="1">
          <mxGeometry x="140" y="-200" width="480" height="380" as="geometry" />
        </mxCell>
        <mxCell id="pPMCe3-cTSx6Zwr6l8Ok-12" value="表示层" style="swimlane;startSize=20;horizontal=0;html=1;" vertex="1" parent="pPMCe3-cTSx6Zwr6l8Ok-11">
          <mxGeometry y="20" width="480" height="120" as="geometry" />
        </mxCell>
        <mxCell id="pPMCe3-cTSx6Zwr6l8Ok-16" value="Web前端&amp;nbsp;&lt;br&gt;（HTML/CSS/JS）" style="rounded=0;whiteSpace=wrap;html=1;" vertex="1" parent="pPMCe3-cTSx6Zwr6l8Ok-12">
          <mxGeometry x="40" y="20" width="160" height="80" as="geometry" />
        </mxCell>
        <mxCell id="pPMCe3-cTSx6Zwr6l8Ok-19" value="管理界面&lt;div&gt;(SimpleUI)&lt;/div&gt;" style="rounded=0;whiteSpace=wrap;html=1;" vertex="1" parent="pPMCe3-cTSx6Zwr6l8Ok-12">
          <mxGeometry x="274" y="20" width="156" height="80" as="geometry" />
        </mxCell>
        <mxCell id="pPMCe3-cTSx6Zwr6l8Ok-13" value="应用层" style="swimlane;startSize=20;horizontal=0;html=1;" vertex="1" parent="pPMCe3-cTSx6Zwr6l8Ok-11">
          <mxGeometry y="140" width="480" height="120" as="geometry" />
        </mxCell>
        <mxCell id="pPMCe3-cTSx6Zwr6l8Ok-14" value="服务层" style="swimlane;startSize=20;horizontal=0;html=1;" vertex="1" parent="pPMCe3-cTSx6Zwr6l8Ok-11">
          <mxGeometry y="260" width="480" height="120" as="geometry" />
        </mxCell>
      </root>
    </mxGraphModel>
  </diagram>
</mxfile>
